<svg width="184" height="52" viewBox="0 0 184 52" fill="none" xmlns="http://www.w3.org/2000/svg">
<path d="M38.48 10.3999H15.6C14.2209 10.3999 12.8983 10.9478 11.9231 11.9229C10.9479 12.8981 10.4 14.2208 10.4 15.5999V36.3999C10.4 37.779 10.9479 39.1017 11.9231 40.0769C12.8983 41.052 14.2209 41.5999 15.6 41.5999H38.48" stroke="#F5F0E8" stroke-width="4.68" stroke-linecap="round" stroke-linejoin="round"/>
<path d="M21.84 16.6399V35.3599" stroke="#F5F0E8" stroke-width="4.68" stroke-linecap="round" stroke-linejoin="round"/>
<path d="M21.84 25.9999L31.2 16.6399" stroke="#F5F0E8" stroke-width="4.68" stroke-linecap="round" stroke-linejoin="round"/>
<path d="M21.84 26L31.2 35.36" stroke="#F5F0E8" stroke-width="4.68" stroke-linecap="round" stroke-linejoin="round"/>
<path d="M41.6 18.72V33.28" stroke="#FF4D57" stroke-width="2.6" stroke-linecap="round"/>
<path d="M77.85 16.274H83.868V19.844H77.85V16.274ZM73.056 10.868H77.748C77.748 13.7013 77.2607 16.1607 76.286 18.246C75.334 20.3313 73.8153 22.0653 71.73 23.448C69.6447 24.8307 66.9133 25.9187 63.536 26.712L61.904 23.278C64.08 22.802 65.882 22.224 67.31 21.544C68.7607 20.864 69.894 20.0933 70.71 19.232C71.5487 18.3707 72.1493 17.43 72.512 16.41C72.8747 15.3673 73.056 14.2793 73.056 13.146V10.868ZM63.638 10.868H76.286V14.37H63.638V10.868ZM73.94 16.104V19.096L62.72 19.912L62.108 16.512L73.94 16.104ZM83.188 9.508H87.744V25.386H83.188V9.508ZM66.936 26.61H87.744V35.178H71.458V39.088H66.97V31.914H83.256V30.112H66.936V26.61ZM66.97 37.15H88.356V40.686H66.97V37.15ZM113.887 9.474H118.409V41.06H113.887V9.474ZM108.311 21.578H114.907V25.25H108.311V21.578ZM99.2673 17.702H102.769V19.334C102.769 20.9887 102.588 22.6207 102.225 24.23C101.885 25.8393 101.353 27.358 100.627 28.786C99.9247 30.214 99.0293 31.4833 97.9413 32.594C96.876 33.7047 95.6293 34.5773 94.2013 35.212L91.7873 31.71C93.0567 31.1433 94.156 30.4067 95.0853 29.5C96.0373 28.5707 96.8193 27.5507 97.4313 26.44C98.0433 25.3067 98.4967 24.1393 98.7913 22.938C99.1087 21.714 99.2673 20.5127 99.2673 19.334V17.702ZM100.219 17.702H103.755V19.334C103.755 20.4447 103.903 21.5893 104.197 22.768C104.515 23.924 104.979 25.046 105.591 26.134C106.203 27.1993 106.974 28.174 107.903 29.058C108.855 29.942 109.966 30.6673 111.235 31.234L108.889 34.668C107.439 34.056 106.169 33.2173 105.081 32.152C104.016 31.0867 103.121 29.8627 102.395 28.48C101.67 27.0973 101.126 25.6353 100.763 24.094C100.401 22.53 100.219 20.9433 100.219 19.334V17.702ZM92.8413 14.642H110.011V18.212H92.8413V14.642ZM99.2333 10.256H103.755V16.512H99.2333V10.256ZM135.237 12.534H139.623C139.623 14.9593 139.419 17.294 139.011 19.538C138.603 21.7593 137.877 23.8787 136.835 25.896C135.792 27.9133 134.33 29.7947 132.449 31.54C130.567 33.2853 128.142 34.8947 125.173 36.368L122.793 32.866C125.218 31.6647 127.235 30.3727 128.845 28.99C130.454 27.6073 131.723 26.1113 132.653 24.502C133.582 22.8927 134.239 21.1473 134.625 19.266C135.033 17.3847 135.237 15.3333 135.237 13.112V12.534ZM124.697 12.534H137.481V16.138H124.697V12.534ZM135.203 20.252V23.72L123.643 24.774L123.065 20.966L135.203 20.252ZM144.281 9.508H148.803V40.992H144.281V9.508ZM153.866 12.262H171.308V15.9H153.866V12.262ZM153.492 33.886L153.05 30.214C154.863 30.214 156.847 30.2027 159 30.18C161.153 30.1347 163.352 30.0553 165.596 29.942C167.84 29.806 169.982 29.6133 172.022 29.364L172.328 32.662C170.22 33.002 168.055 33.274 165.834 33.478C163.635 33.6593 161.471 33.7727 159.34 33.818C157.232 33.8633 155.283 33.886 153.492 33.886ZM156.484 15.254H160.87V31.132H156.484V15.254ZM163.964 15.254H168.35V31.132H163.964V15.254ZM175.082 9.542H179.604V41.026H175.082V9.542ZM170.39 20.966H178.414V24.604H170.39V20.966Z" fill="#F5F0E8"/>
</svg>
