<svg width="186" height="78" viewBox="0 0 186 78" fill="none" xmlns="http://www.w3.org/2000/svg">
<path d="M38.48 10.3999H15.6C14.2209 10.3999 12.8983 10.9478 11.9231 11.9229C10.9479 12.8981 10.4 14.2208 10.4 15.5999V36.3999C10.4 37.779 10.9479 39.1017 11.9231 40.0769C12.8983 41.052 14.2209 41.5999 15.6 41.5999H38.48" stroke="#F5F0E8" stroke-width="4.68" stroke-linecap="round" stroke-linejoin="round"/>
<path d="M21.84 16.6399V35.3599" stroke="#F5F0E8" stroke-width="4.68" stroke-linecap="round" stroke-linejoin="round"/>
<path d="M21.84 25.9999L31.2 16.6399" stroke="#F5F0E8" stroke-width="4.68" stroke-linecap="round" stroke-linejoin="round"/>
<path d="M21.84 26L31.2 35.36" stroke="#F5F0E8" stroke-width="4.68" stroke-linecap="round" stroke-linejoin="round"/>
<path d="M41.6 18.72V33.28" stroke="#FF4D57" stroke-width="2.6" stroke-linecap="round"/>
<path d="M77.85 16.274H83.868V19.844H77.85V16.274ZM73.056 10.868H77.748C77.748 13.7013 77.2607 16.1607 76.286 18.246C75.334 20.3313 73.8153 22.0653 71.73 23.448C69.6447 24.8307 66.9133 25.9187 63.536 26.712L61.904 23.278C64.08 22.802 65.882 22.224 67.31 21.544C68.7607 20.864 69.894 20.0933 70.71 19.232C71.5487 18.3707 72.1493 17.43 72.512 16.41C72.8747 15.3673 73.056 14.2793 73.056 13.146V10.868ZM63.638 10.868H76.286V14.37H63.638V10.868ZM73.94 16.104V19.096L62.72 19.912L62.108 16.512L73.94 16.104ZM83.188 9.508H87.744V25.386H83.188V9.508ZM66.936 26.61H87.744V35.178H71.458V39.088H66.97V31.914H83.256V30.112H66.936V26.61ZM66.97 37.15H88.356V40.686H66.97V37.15ZM113.887 9.474H118.409V41.06H113.887V9.474ZM108.311 21.578H114.907V25.25H108.311V21.578ZM99.2673 17.702H102.769V19.334C102.769 20.9887 102.588 22.6207 102.225 24.23C101.885 25.8393 101.353 27.358 100.627 28.786C99.9247 30.214 99.0293 31.4833 97.9413 32.594C96.876 33.7047 95.6293 34.5773 94.2013 35.212L91.7873 31.71C93.0567 31.1433 94.156 30.4067 95.0853 29.5C96.0373 28.5707 96.8193 27.5507 97.4313 26.44C98.0433 25.3067 98.4967 24.1393 98.7913 22.938C99.1087 21.714 99.2673 20.5127 99.2673 19.334V17.702ZM100.219 17.702H103.755V19.334C103.755 20.4447 103.903 21.5893 104.197 22.768C104.515 23.924 104.979 25.046 105.591 26.134C106.203 27.1993 106.974 28.174 107.903 29.058C108.855 29.942 109.966 30.6673 111.235 31.234L108.889 34.668C107.439 34.056 106.169 33.2173 105.081 32.152C104.016 31.0867 103.121 29.8627 102.395 28.48C101.67 27.0973 101.126 25.6353 100.763 24.094C100.401 22.53 100.219 20.9433 100.219 19.334V17.702ZM92.8413 14.642H110.011V18.212H92.8413V14.642ZM99.2333 10.256H103.755V16.512H99.2333V10.256ZM135.237 12.534H139.623C139.623 14.9593 139.419 17.294 139.011 19.538C138.603 21.7593 137.877 23.8787 136.835 25.896C135.792 27.9133 134.33 29.7947 132.449 31.54C130.567 33.2853 128.142 34.8947 125.173 36.368L122.793 32.866C125.218 31.6647 127.235 30.3727 128.845 28.99C130.454 27.6073 131.723 26.1113 132.653 24.502C133.582 22.8927 134.239 21.1473 134.625 19.266C135.033 17.3847 135.237 15.3333 135.237 13.112V12.534ZM124.697 12.534H137.481V16.138H124.697V12.534ZM135.203 20.252V23.72L123.643 24.774L123.065 20.966L135.203 20.252ZM144.281 9.508H148.803V40.992H144.281V9.508ZM153.866 12.262H171.308V15.9H153.866V12.262ZM153.492 33.886L153.05 30.214C154.863 30.214 156.847 30.2027 159 30.18C161.153 30.1347 163.352 30.0553 165.596 29.942C167.84 29.806 169.982 29.6133 172.022 29.364L172.328 32.662C170.22 33.002 168.055 33.274 165.834 33.478C163.635 33.6593 161.471 33.7727 159.34 33.818C157.232 33.8633 155.283 33.886 153.492 33.886ZM156.484 15.254H160.87V31.132H156.484V15.254ZM163.964 15.254H168.35V31.132H163.964V15.254ZM175.082 9.542H179.604V41.026H175.082V9.542ZM170.39 20.966H178.414V24.604H170.39V20.966Z" fill="#F5F0E8"/>
<path d="M11.488 72.196C10.8347 72.196 10.2233 72.084 9.654 71.86C9.08467 71.6267 8.58067 71.2813 8.142 70.824C7.71267 70.3667 7.372 69.8067 7.12 69.144C6.87733 68.4813 6.756 67.7207 6.756 66.862C6.756 66.0033 6.882 65.2427 7.134 64.58C7.386 63.908 7.73133 63.3387 8.17 62.872C8.618 62.4053 9.13133 62.0507 9.71 61.808C10.298 61.5653 10.9187 61.444 11.572 61.444C12.2347 61.444 12.8227 61.5793 13.336 61.85C13.8587 62.1113 14.2833 62.4193 14.61 62.774L13.532 64.09C13.2707 63.8287 12.9813 63.6187 12.664 63.46C12.356 63.3013 12.006 63.222 11.614 63.222C11.0913 63.222 10.62 63.3667 10.2 63.656C9.78933 63.936 9.46733 64.342 9.234 64.874C9.00067 65.406 8.884 66.0453 8.884 66.792C8.884 67.548 8.99133 68.1967 9.206 68.738C9.43 69.27 9.74267 69.6807 10.144 69.97C10.5547 70.2593 11.0307 70.404 11.572 70.404C12.02 70.404 12.4167 70.3107 12.762 70.124C13.1167 69.928 13.4293 69.6807 13.7 69.382L14.806 70.67C14.3767 71.174 13.8867 71.5567 13.336 71.818C12.7853 72.07 12.1693 72.196 11.488 72.196ZM18.3991 72.196C17.5497 72.196 16.9337 71.9207 16.5511 71.37C16.1684 70.81 15.9771 70.0353 15.9771 69.046V64.16H18.0211V68.794C18.0211 69.4007 18.1097 69.8253 18.2871 70.068C18.4644 70.3107 18.7491 70.432 19.1411 70.432C19.4584 70.432 19.7337 70.3573 19.9671 70.208C20.2097 70.0493 20.4617 69.7973 20.7231 69.452V64.16H22.7811V72H21.1011L20.9471 70.866H20.8911C20.5551 71.2673 20.1911 71.5893 19.7991 71.832C19.4071 72.0747 18.9404 72.196 18.3991 72.196ZM26.9211 72.196C26.4358 72.196 26.0531 72.098 25.7731 71.902C25.4931 71.6967 25.2878 71.4167 25.1571 71.062C25.0358 70.698 24.9751 70.278 24.9751 69.802V60.828H27.0331V69.886C27.0331 70.1193 27.0751 70.2827 27.1591 70.376C27.2525 70.4693 27.3458 70.516 27.4391 70.516C27.4858 70.516 27.5278 70.516 27.5651 70.516C27.6025 70.5067 27.6538 70.4973 27.7191 70.488L27.9711 72.014C27.8498 72.0607 27.7005 72.1027 27.5231 72.14C27.3551 72.1773 27.1545 72.196 26.9211 72.196ZM32.2612 72.196C31.6452 72.196 31.1458 72.0747 30.7632 71.832C30.3805 71.58 30.1052 71.2347 29.9372 70.796C29.7692 70.3573 29.6852 69.8487 29.6852 69.27V65.784H28.5792V64.258L29.7972 64.16L30.0352 62.046H31.7292V64.16H33.6752V65.784H31.7292V69.256C31.7292 69.704 31.8225 70.0353 32.0092 70.25C32.1958 70.4647 32.4618 70.572 32.8072 70.572C32.9378 70.572 33.0732 70.5533 33.2132 70.516C33.3532 70.4787 33.4745 70.4413 33.5772 70.404L33.9272 71.902C33.7125 71.9673 33.4652 72.0327 33.1852 72.098C32.9145 72.1633 32.6065 72.196 32.2612 72.196ZM37.6217 72.196C36.7724 72.196 36.1564 71.9207 35.7737 71.37C35.3911 70.81 35.1997 70.0353 35.1997 69.046V64.16H37.2437V68.794C37.2437 69.4007 37.3324 69.8253 37.5097 70.068C37.6871 70.3107 37.9717 70.432 38.3637 70.432C38.6811 70.432 38.9564 70.3573 39.1897 70.208C39.4324 70.0493 39.6844 69.7973 39.9457 69.452V64.16H42.0037V72H40.3237L40.1697 70.866H40.1137C39.7777 71.2673 39.4137 71.5893 39.0217 71.832C38.6297 72.0747 38.1631 72.196 37.6217 72.196ZM44.1978 72V64.16H45.8778L46.0318 65.546H46.0738C46.3631 65.0327 46.7038 64.6407 47.0958 64.37C47.4878 64.0993 47.8891 63.964 48.2998 63.964C48.5238 63.964 48.7011 63.9827 48.8318 64.02C48.9718 64.048 49.0978 64.0853 49.2098 64.132L48.8738 65.91C48.7245 65.8727 48.5891 65.8447 48.4678 65.826C48.3558 65.798 48.2111 65.784 48.0338 65.784C47.7351 65.784 47.4178 65.9007 47.0818 66.134C46.7551 66.3673 46.4798 66.764 46.2558 67.324V72H44.1978ZM53.4927 72.196C52.7647 72.196 52.1067 72.0327 51.5187 71.706C50.9307 71.3793 50.4594 70.908 50.1047 70.292C49.7594 69.676 49.5867 68.9387 49.5867 68.08C49.5867 67.4453 49.6847 66.876 49.8807 66.372C50.086 65.868 50.3614 65.4387 50.7067 65.084C51.0614 64.72 51.4534 64.4447 51.8827 64.258C52.3214 64.062 52.774 63.964 53.2407 63.964C53.9594 63.964 54.5614 64.1273 55.0467 64.454C55.532 64.7713 55.896 65.2147 56.1387 65.784C56.3907 66.344 56.5167 66.988 56.5167 67.716C56.5167 67.9027 56.5074 68.0847 56.4887 68.262C56.47 68.43 56.4467 68.5653 56.4187 68.668H51.5887C51.6447 69.088 51.7707 69.4427 51.9667 69.732C52.1627 70.0213 52.4147 70.2407 52.7227 70.39C53.0307 70.53 53.3807 70.6 53.7727 70.6C54.09 70.6 54.3887 70.558 54.6687 70.474C54.9487 70.3807 55.2334 70.2453 55.5227 70.068L56.2227 71.328C55.84 71.5893 55.4107 71.7993 54.9347 71.958C54.4587 72.1167 53.978 72.196 53.4927 72.196ZM51.5467 67.282H54.7527C54.7527 66.7593 54.6314 66.344 54.3887 66.036C54.1554 65.7187 53.782 65.56 53.2687 65.56C52.998 65.56 52.7414 65.6253 52.4987 65.756C52.256 65.8773 52.0507 66.0687 51.8827 66.33C51.7147 66.582 51.6027 66.8993 51.5467 67.282ZM65.7653 72.196C65.112 72.196 64.5007 72.084 63.9313 71.86C63.362 71.6267 62.858 71.2813 62.4193 70.824C61.99 70.3667 61.6493 69.8067 61.3973 69.144C61.1547 68.4813 61.0333 67.7207 61.0333 66.862C61.0333 66.0033 61.1593 65.2427 61.4113 64.58C61.6633 63.908 62.0087 63.3387 62.4473 62.872C62.8953 62.4053 63.4087 62.0507 63.9873 61.808C64.5753 61.5653 65.196 61.444 65.8493 61.444C66.512 61.444 67.1 61.5793 67.6133 61.85C68.136 62.1113 68.5607 62.4193 68.8873 62.774L67.8093 64.09C67.548 63.8287 67.2587 63.6187 66.9413 63.46C66.6333 63.3013 66.2833 63.222 65.8913 63.222C65.3687 63.222 64.8973 63.3667 64.4773 63.656C64.0667 63.936 63.7447 64.342 63.5113 64.874C63.278 65.406 63.1613 66.0453 63.1613 66.792C63.1613 67.548 63.2687 68.1967 63.4833 68.738C63.7073 69.27 64.02 69.6807 64.4213 69.97C64.832 70.2593 65.308 70.404 65.8493 70.404C66.2973 70.404 66.694 70.3107 67.0393 70.124C67.394 69.928 67.7067 69.6807 67.9773 69.382L69.0833 70.67C68.654 71.174 68.164 71.5567 67.6133 71.818C67.0627 72.07 66.4467 72.196 65.7653 72.196ZM73.8468 72.196C73.1935 72.196 72.5775 72.0327 71.9988 71.706C71.4295 71.3793 70.9675 70.9127 70.6128 70.306C70.2582 69.69 70.0808 68.948 70.0808 68.08C70.0808 67.212 70.2582 66.4747 70.6128 65.868C70.9675 65.252 71.4295 64.7807 71.9988 64.454C72.5775 64.1273 73.1935 63.964 73.8468 63.964C74.3415 63.964 74.8128 64.0573 75.2608 64.244C75.7088 64.4307 76.1102 64.7013 76.4648 65.056C76.8195 65.4013 77.0995 65.8307 77.3048 66.344C77.5102 66.848 77.6128 67.4267 77.6128 68.08C77.6128 68.948 77.4355 69.69 77.0808 70.306C76.7262 70.9127 76.2595 71.3793 75.6808 71.706C75.1115 72.0327 74.5002 72.196 73.8468 72.196ZM73.8468 70.516C74.2015 70.516 74.5002 70.418 74.7428 70.222C74.9948 70.0167 75.1815 69.732 75.3028 69.368C75.4335 69.004 75.4988 68.5747 75.4988 68.08C75.4988 67.5853 75.4335 67.156 75.3028 66.792C75.1815 66.428 74.9948 66.148 74.7428 65.952C74.5002 65.7467 74.2015 65.644 73.8468 65.644C73.4922 65.644 73.1888 65.7467 72.9368 65.952C72.6942 66.148 72.5075 66.428 72.3768 66.792C72.2555 67.156 72.1948 67.5853 72.1948 68.08C72.1948 68.5747 72.2555 69.004 72.3768 69.368C72.5075 69.732 72.6942 70.0167 72.9368 70.222C73.1888 70.418 73.4922 70.516 73.8468 70.516ZM78.8735 68.738V67.254H82.6955V68.738H78.8735ZM86.4211 72.196C85.9358 72.196 85.5531 72.098 85.2731 71.902C84.9931 71.6967 84.7878 71.4167 84.6571 71.062C84.5358 70.698 84.4751 70.278 84.4751 69.802V60.828H86.5331V69.886C86.5331 70.1193 86.5751 70.2827 86.6591 70.376C86.7525 70.4693 86.8458 70.516 86.9391 70.516C86.9858 70.516 87.0278 70.516 87.0651 70.516C87.1025 70.5067 87.1538 70.4973 87.2191 70.488L87.4711 72.014C87.3498 72.0607 87.2005 72.1027 87.0231 72.14C86.8551 72.1773 86.6545 72.196 86.4211 72.196ZM88.8912 72V64.16H90.9492V72H88.8912ZM89.9272 62.886C89.5632 62.886 89.2738 62.788 89.0592 62.592C88.8445 62.3867 88.7372 62.1113 88.7372 61.766C88.7372 61.43 88.8445 61.1593 89.0592 60.954C89.2738 60.7487 89.5632 60.646 89.9272 60.646C90.2725 60.646 90.5572 60.7487 90.7812 60.954C91.0052 61.1593 91.1172 61.43 91.1172 61.766C91.1172 62.1113 91.0052 62.3867 90.7812 62.592C90.5572 62.788 90.2725 62.886 89.9272 62.886ZM94.9071 72L92.2331 64.16H94.3051L95.4391 68.066C95.5511 68.458 95.6584 68.8547 95.7611 69.256C95.8731 69.648 95.9804 70.0447 96.0831 70.446H96.1531C96.2558 70.0447 96.3584 69.648 96.4611 69.256C96.5731 68.8547 96.6804 68.458 96.7831 68.066L97.9311 64.16H99.9051L97.2871 72H94.9071ZM101.21 72V64.16H103.268V72H101.21ZM102.246 62.886C101.882 62.886 101.592 62.788 101.378 62.592C101.163 62.3867 101.056 62.1113 101.056 61.766C101.056 61.43 101.163 61.1593 101.378 60.954C101.592 60.7487 101.882 60.646 102.246 60.646C102.591 60.646 102.876 60.7487 103.1 60.954C103.324 61.1593 103.436 61.43 103.436 61.766C103.436 62.1113 103.324 62.3867 103.1 62.592C102.876 62.788 102.591 62.886 102.246 62.886ZM105.461 72V64.16H107.141L107.295 65.196H107.337C107.683 64.86 108.061 64.5707 108.471 64.328C108.882 64.0853 109.353 63.964 109.885 63.964C110.735 63.964 111.351 64.244 111.733 64.804C112.116 65.3547 112.307 66.1247 112.307 67.114V72H110.249V67.366C110.249 66.7593 110.161 66.3347 109.983 66.092C109.815 65.8493 109.535 65.728 109.143 65.728C108.826 65.728 108.546 65.8027 108.303 65.952C108.07 66.1013 107.809 66.3207 107.519 66.61V72H105.461ZM117.188 75.402C116.572 75.402 116.017 75.3273 115.522 75.178C115.028 75.038 114.636 74.8187 114.346 74.52C114.066 74.2307 113.926 73.8527 113.926 73.386C113.926 73.0593 114.02 72.756 114.206 72.476C114.393 72.196 114.673 71.958 115.046 71.762V71.692C114.841 71.5613 114.668 71.3887 114.528 71.174C114.398 70.9593 114.332 70.6887 114.332 70.362C114.332 70.0727 114.416 69.802 114.584 69.55C114.762 69.2887 114.967 69.074 115.2 68.906V68.85C114.93 68.654 114.687 68.3787 114.472 68.024C114.258 67.6693 114.15 67.2587 114.15 66.792C114.15 66.176 114.295 65.658 114.584 65.238C114.883 64.818 115.275 64.5007 115.76 64.286C116.246 64.0713 116.759 63.964 117.3 63.964C117.534 63.964 117.748 63.9827 117.944 64.02C118.15 64.0573 118.336 64.104 118.504 64.16H121.318V65.672H119.988C120.091 65.812 120.175 65.9847 120.24 66.19C120.306 66.3953 120.338 66.6193 120.338 66.862C120.338 67.45 120.203 67.9447 119.932 68.346C119.662 68.738 119.298 69.032 118.84 69.228C118.383 69.424 117.87 69.522 117.3 69.522C117.16 69.522 117.002 69.508 116.824 69.48C116.647 69.4427 116.47 69.396 116.292 69.34C116.19 69.4333 116.106 69.5313 116.04 69.634C115.984 69.7273 115.956 69.858 115.956 70.026C115.956 70.222 116.045 70.376 116.222 70.488C116.409 70.6 116.731 70.656 117.188 70.656H118.532C119.475 70.656 120.198 70.8147 120.702 71.132C121.206 71.44 121.458 71.9347 121.458 72.616C121.458 73.148 121.281 73.6193 120.926 74.03C120.581 74.45 120.086 74.7813 119.442 75.024C118.808 75.276 118.056 75.402 117.188 75.402ZM117.3 68.248C117.534 68.248 117.744 68.192 117.93 68.08C118.117 67.968 118.266 67.8047 118.378 67.59C118.49 67.366 118.546 67.1 118.546 66.792C118.546 66.484 118.49 66.2273 118.378 66.022C118.266 65.8073 118.117 65.6487 117.93 65.546C117.744 65.434 117.534 65.378 117.3 65.378C117.076 65.378 116.871 65.434 116.684 65.546C116.498 65.6487 116.348 65.8073 116.236 66.022C116.134 66.2273 116.082 66.484 116.082 66.792C116.082 67.1 116.134 67.366 116.236 67.59C116.348 67.8047 116.498 67.968 116.684 68.08C116.871 68.192 117.076 68.248 117.3 68.248ZM117.496 74.086C117.898 74.086 118.243 74.0347 118.532 73.932C118.831 73.8293 119.064 73.694 119.232 73.526C119.4 73.358 119.484 73.1713 119.484 72.966C119.484 72.686 119.372 72.4947 119.148 72.392C118.924 72.2987 118.602 72.252 118.182 72.252H117.216C116.983 72.252 116.782 72.2427 116.614 72.224C116.446 72.2147 116.288 72.1913 116.138 72.154C115.961 72.294 115.83 72.4387 115.746 72.588C115.672 72.7467 115.634 72.91 115.634 73.078C115.634 73.3953 115.802 73.6427 116.138 73.82C116.474 73.9973 116.927 74.086 117.496 74.086ZM126.124 72V61.626H129.526C130.291 61.626 130.977 61.7287 131.584 61.934C132.2 62.1393 132.685 62.48 133.04 62.956C133.404 63.4227 133.586 64.0667 133.586 64.888C133.586 65.672 133.404 66.3207 133.04 66.834C132.685 67.338 132.204 67.7113 131.598 67.954C131 68.1967 130.328 68.318 129.582 68.318H128.196V72H126.124ZM128.196 66.68H129.442C130.151 66.68 130.678 66.5307 131.024 66.232C131.378 65.9333 131.556 65.4853 131.556 64.888C131.556 64.2907 131.369 63.8753 130.996 63.642C130.632 63.3993 130.09 63.278 129.372 63.278H128.196V66.68ZM137.24 72.196C136.754 72.196 136.372 72.098 136.092 71.902C135.812 71.6967 135.606 71.4167 135.476 71.062C135.354 70.698 135.294 70.278 135.294 69.802V60.828H137.352V69.886C137.352 70.1193 137.394 70.2827 137.478 70.376C137.571 70.4693 137.664 70.516 137.758 70.516C137.804 70.516 137.846 70.516 137.883 70.516C137.921 70.5067 137.972 70.4973 138.038 70.488L138.29 72.014C138.168 72.0607 138.019 72.1027 137.842 72.14C137.674 72.1773 137.473 72.196 137.24 72.196ZM141.628 72.196C141.17 72.196 140.764 72.098 140.41 71.902C140.064 71.6967 139.794 71.4167 139.598 71.062C139.411 70.7073 139.318 70.306 139.318 69.858C139.318 69.0273 139.677 68.3833 140.396 67.926C141.114 67.4593 142.258 67.142 143.826 66.974C143.816 66.7127 143.77 66.484 143.686 66.288C143.602 66.0827 143.462 65.9193 143.266 65.798C143.079 65.6767 142.822 65.616 142.496 65.616C142.132 65.616 141.772 65.686 141.418 65.826C141.063 65.966 140.704 66.148 140.34 66.372L139.612 65C139.92 64.804 140.246 64.6313 140.592 64.482C140.937 64.3327 141.301 64.2113 141.684 64.118C142.066 64.0153 142.463 63.964 142.874 63.964C143.536 63.964 144.092 64.0947 144.54 64.356C144.988 64.6173 145.324 65.0047 145.548 65.518C145.772 66.0313 145.884 66.666 145.884 67.422V72H144.204L144.064 71.16H143.994C143.658 71.4587 143.294 71.706 142.902 71.902C142.51 72.098 142.085 72.196 141.628 72.196ZM142.314 70.586C142.603 70.586 142.864 70.5207 143.098 70.39C143.34 70.25 143.583 70.0587 143.826 69.816V68.248C143.191 68.3227 142.687 68.43 142.314 68.57C141.94 68.71 141.674 68.878 141.516 69.074C141.357 69.2607 141.278 69.4707 141.278 69.704C141.278 70.012 141.371 70.236 141.558 70.376C141.754 70.516 142.006 70.586 142.314 70.586ZM150.509 72.196C149.893 72.196 149.394 72.0747 149.011 71.832C148.629 71.58 148.353 71.2347 148.185 70.796C148.017 70.3573 147.933 69.8487 147.933 69.27V65.784H146.827V64.258L148.045 64.16L148.283 62.046H149.977V64.16H151.923V65.784H149.977V69.256C149.977 69.704 150.071 70.0353 150.257 70.25C150.444 70.4647 150.71 70.572 151.055 70.572C151.186 70.572 151.321 70.5533 151.461 70.516C151.601 70.4787 151.723 70.4413 151.825 70.404L152.175 71.902C151.961 71.9673 151.713 72.0327 151.433 72.098C151.163 72.1633 150.855 72.196 150.509 72.196ZM153.882 72V63.53C153.882 62.9887 153.97 62.4987 154.148 62.06C154.334 61.6213 154.624 61.276 155.016 61.024C155.417 60.7627 155.944 60.632 156.598 60.632C156.915 60.632 157.2 60.66 157.452 60.716C157.704 60.772 157.918 60.8327 158.096 60.898L157.718 62.438C157.456 62.3167 157.176 62.256 156.878 62.256C156.579 62.256 156.346 62.354 156.178 62.55C156.01 62.746 155.926 63.0587 155.926 63.488V72H153.882ZM152.818 65.784V64.258L153.994 64.16H157.424V65.784H152.818ZM161.784 72.196C161.131 72.196 160.515 72.0327 159.936 71.706C159.367 71.3793 158.905 70.9127 158.55 70.306C158.196 69.69 158.018 68.948 158.018 68.08C158.018 67.212 158.196 66.4747 158.55 65.868C158.905 65.252 159.367 64.7807 159.936 64.454C160.515 64.1273 161.131 63.964 161.784 63.964C162.279 63.964 162.75 64.0573 163.198 64.244C163.646 64.4307 164.048 64.7013 164.402 65.056C164.757 65.4013 165.037 65.8307 165.242 66.344C165.448 66.848 165.55 67.4267 165.55 68.08C165.55 68.948 165.373 69.69 165.018 70.306C164.664 70.9127 164.197 71.3793 163.618 71.706C163.049 72.0327 162.438 72.196 161.784 72.196ZM161.784 70.516C162.139 70.516 162.438 70.418 162.68 70.222C162.932 70.0167 163.119 69.732 163.24 69.368C163.371 69.004 163.436 68.5747 163.436 68.08C163.436 67.5853 163.371 67.156 163.24 66.792C163.119 66.428 162.932 66.148 162.68 65.952C162.438 65.7467 162.139 65.644 161.784 65.644C161.43 65.644 161.126 65.7467 160.874 65.952C160.632 66.148 160.445 66.428 160.314 66.792C160.193 67.156 160.132 67.5853 160.132 68.08C160.132 68.5747 160.193 69.004 160.314 69.368C160.445 69.732 160.632 70.0167 160.874 70.222C161.126 70.418 161.43 70.516 161.784 70.516ZM167.272 72V64.16H168.952L169.106 65.546H169.148C169.437 65.0327 169.778 64.6407 170.17 64.37C170.562 64.0993 170.963 63.964 171.374 63.964C171.598 63.964 171.775 63.9827 171.906 64.02C172.046 64.048 172.172 64.0853 172.284 64.132L171.948 65.91C171.799 65.8727 171.663 65.8447 171.542 65.826C171.43 65.798 171.285 65.784 171.108 65.784C170.809 65.784 170.492 65.9007 170.156 66.134C169.829 66.3673 169.554 66.764 169.33 67.324V72H167.272ZM173.383 72V64.16H175.063L175.217 65.21H175.259C175.586 64.874 175.941 64.5847 176.323 64.342C176.706 64.09 177.154 63.964 177.667 63.964C178.227 63.964 178.675 64.0853 179.011 64.328C179.357 64.5613 179.623 64.8973 179.809 65.336C180.183 64.9533 180.565 64.6313 180.957 64.37C181.359 64.0993 181.811 63.964 182.315 63.964C183.155 63.964 183.767 64.244 184.149 64.804C184.541 65.3547 184.737 66.1247 184.737 67.114V72H182.693V67.366C182.693 66.7593 182.605 66.3347 182.427 66.092C182.25 65.8493 181.975 65.728 181.601 65.728C181.377 65.728 181.139 65.8027 180.887 65.952C180.645 66.092 180.379 66.3113 180.089 66.61V72H178.031V67.366C178.031 66.7593 177.943 66.3347 177.765 66.092C177.588 65.8493 177.313 65.728 176.939 65.728C176.725 65.728 176.487 65.8027 176.225 65.952C175.973 66.092 175.712 66.3113 175.441 66.61V72H173.383Z" fill="#F5F0E8"/>
</svg>
